<mxfile host="app.diagrams.net" modified="2024-04-08T10:30:15.290Z" agent="Mozilla/5.0 (Windows NT 10.0; Win64; x64) AppleWebKit/537.36 (KHTML, like Gecko) Chrome/123.0.0.0 Safari/537.36" version="24.2.2" etag="-6kyIt_OTVncvReySDWu" type="github">
  <diagram name="Page-1" id="cPQJU1x5F64uc31Ga9pS">
    <mxGraphModel>
      <root>
        <mxCell id="0" />
        <mxCell id="1" parent="0" />
      </root>
    </mxGraphModel>
  </diagram>
</mxfile>
